<?xml version="1.0" encoding="UTF-8"?>
<svg id="Layer_2" data-name="Layer 2" xmlns="http://www.w3.org/2000/svg" viewBox="0 0 250.32 39.55">
  <defs>
    <style>
      .cls-1 {
        fill: #4b7ae4;
      }

      .cls-1, .cls-2, .cls-3 {
        stroke: #000;
      }

      .cls-1, .cls-2, .cls-3, .cls-4, .cls-5 {
        stroke-linecap: round;
        stroke-linejoin: round;
        stroke-width: 1.5px;
      }

      .cls-2 {
        fill: #cce1ff;
      }

      .cls-3 {
        fill: #fff;
      }

      .cls-6 {
        fill: #2f313a;
        stroke: #2f313a;
        stroke-miterlimit: 10;
        stroke-width: .1px;
      }

      .cls-4 {
        fill: none;
      }

      .cls-4, .cls-5 {
        stroke: #232323;
      }

      .cls-5 {
        fill: #ffce00;
      }
    </style>
  </defs>
  <g id="_타이틀" data-name="타이틀">
    <g>
      <g>
        <path class="cls-6" d="m72.89,30.2v-13.38c0-.61-.14-1.15-.42-1.62s-.89-.71-1.82-.71c-.83,0-1.67.28-2.52.85-.85.57-1.59,1.17-2.2,1.8v13.07h-4.48v-13.54c0-.79-.19-1.35-.56-1.68-.37-.33-.97-.5-1.8-.5-.77,0-1.61.28-2.5.83-.89.55-1.65,1.15-2.26,1.78v13.11h-4.48V11.31h4.08l.4,1.7c.8-.66,1.75-1.21,2.86-1.64,1.11-.44,2.22-.65,3.34-.65,1.2,0,2.15.22,2.86.67.71.45,1.26,1.06,1.66,1.82.69-.55,1.57-1.11,2.64-1.66,1.07-.55,2.48-.83,4.24-.83,1.04,0,1.91.17,2.6.5.69.33,1.25.77,1.68,1.33.4.55.69,1.21.88,1.96.19.75.28,1.54.28,2.36v13.35h-4.48Z"/>
        <path class="cls-6" d="m98.33,32.1c0,1.4-.26,2.57-.78,3.5-.52.94-1.21,1.7-2.06,2.28-.85.55-1.83.96-2.94,1.23-1.11.26-2.25.4-3.42.4-.51,0-.99,0-1.44-.02-.45-.01-.89-.03-1.32-.06-.43-.03-.83-.05-1.2-.08s-.73-.04-1.08-.04v-3.72c1.15.08,2.07.13,2.78.16.71.03,1.46.04,2.26.04,1.2,0,2.29-.26,3.26-.79.97-.53,1.46-1.5,1.46-2.93v-3.64c-.77.79-1.69,1.35-2.76,1.68-1.07.33-2.17.5-3.32.5-1.97,0-3.63-.57-4.98-1.72-1.35-1.15-2.02-2.96-2.02-5.44v-12.12h4.48v12.08c0,1.21.23,2.1.7,2.65.47.55,1.37.83,2.7.83,1.04,0,2.03-.24,2.96-.71.93-.48,1.68-1.16,2.24-2.06v-12.79h4.48v20.79Z"/>
        <path class="cls-6" d="m121.97,2.44c1.31,0,2.52.13,3.64.4,1.12.26,2.08.7,2.88,1.31.8.58,1.43,1.34,1.9,2.28.47.94.7,2.08.7,3.43s-.29,2.55-.86,3.68c-.57,1.14-1.61,1.94-3.1,2.42,1.55.29,2.71.98,3.48,2.08.77,1.1,1.16,2.46,1.16,4.1,0,1.48-.27,2.73-.8,3.76-.53,1.03-1.25,1.86-2.16,2.49-.91.66-1.97,1.13-3.18,1.41-1.21.28-2.51.42-3.9.42h-4.84c-1.84,0-3.19-.36-4.06-1.07-.87-.71-1.3-1.93-1.3-3.64V7.07c0-1.5.38-2.65,1.14-3.45.76-.79,1.9-1.19,3.42-1.19h5.88Zm-4.36,3.72c-.56,0-.95.15-1.18.46-.23.3-.34.68-.34,1.13v6.42h5.44c1.73,0,3-.34,3.8-1.03.8-.69,1.2-1.74,1.2-3.17,0-1.21-.42-2.15-1.26-2.81-.84-.66-1.94-.99-3.3-.99h-4.36Zm4.52,20.31c1.47,0,2.68-.34,3.64-1.03.96-.69,1.44-1.78,1.44-3.29,0-1.43-.43-2.5-1.28-3.21-.85-.71-2.16-1.07-3.92-1.07h-5.92v7.05c0,.55.13.95.4,1.19.27.24.68.36,1.24.36h4.4Z"/>
        <path class="cls-6" d="m153.89,30.2h-13.76c-1.52,0-2.66-.38-3.42-1.13-.76-.75-1.14-1.88-1.14-3.39V6.95c0-1.5.38-2.63,1.14-3.39.76-.75,1.9-1.13,3.42-1.13h13.32v3.72h-11.96c-.56,0-.93.12-1.1.36-.17.24-.26.58-.26,1.03v6.61h12.92v3.72h-12.92v7.25c0,.48.08.82.24,1.03.16.21.52.32,1.08.32h12.44v3.72Z"/>
        <path class="cls-6" d="m181.17,30.2h-4.56l-2.16-6.38h-12.04l-2.16,6.38h-4.56l9.96-27.76h5.56l9.96,27.76Zm-7.84-9.66l-4.92-14.22-4.88,14.22h9.8Z"/>
        <path class="cls-6" d="m193.45,14.44c1.52.48,2.71,1.12,3.58,1.92.87.81,1.58,1.78,2.14,2.91l5.12,10.93h-4.76c-.35-.74-.69-1.48-1.02-2.22-.33-.74-.67-1.48-1.02-2.22-.35-.74-.69-1.47-1.04-2.2-.35-.73-.69-1.45-1.04-2.16-.45-.84-1.02-1.6-1.7-2.28-.68-.67-1.66-1.21-2.94-1.6l-3.2,3.72v8.95h-4.6V2.44h4.6v12.51l10.76-12.51h5.44l-10.32,12Z"/>
        <path class="cls-6" d="m225.21,30.2h-13.76c-1.52,0-2.66-.38-3.42-1.13-.76-.75-1.14-1.88-1.14-3.39V6.95c0-1.5.38-2.63,1.14-3.39.76-.75,1.9-1.13,3.42-1.13h13.32v3.72h-11.96c-.56,0-.93.12-1.1.36-.17.24-.26.58-.26,1.03v6.61h12.92v3.72h-12.92v7.25c0,.48.08.82.24,1.03.16.21.52.32,1.08.32h12.44v3.72Z"/>
        <path class="cls-6" d="m246.79,4.5c1.64,1.37,2.46,3.48,2.46,6.34,0,2.14-.44,3.85-1.32,5.13-.88,1.28-2.21,2.17-4,2.67.4.26.75.55,1.06.87s.58.67.82,1.07c.24.4.47.83.7,1.31.23.48.47.96.74,1.47l3,6.85h-4.76l-2.28-5.39c-.24-.5-.47-1.01-.7-1.52-.23-.51-.5-1.01-.82-1.48-.35-.5-.78-.97-1.3-1.41-.52-.44-1.18-.84-1.98-1.21h-4.44v11.01h-4.56V6.95c0-1.5.38-2.63,1.14-3.39.76-.75,1.9-1.13,3.42-1.13h5.36c3.33,0,5.82.69,7.46,2.06Zm-11.46,1.7c-.56,0-.93.12-1.1.36-.17.24-.26.58-.26,1.03v7.84h5c1.92,0,3.35-.31,4.3-.93.95-.62,1.42-1.84,1.42-3.66,0-1.69-.47-2.88-1.42-3.58-.95-.7-2.35-1.05-4.22-1.05h-3.72Z"/>
      </g>
      <g>
        <path class="cls-5" d="m37.52,3.76c0-1.66-1.53-3.01-3.41-3.01s-3.36,1.3-3.41,2.93c-.27-.04-.54-.06-.82-.06-2.96,0-5.36,2.12-5.36,4.74s2.4,4.74,5.36,4.74,5.36-2.12,5.36-4.74c0-.59-.13-1.14-.35-1.66,1.5-.32,2.62-1.5,2.62-2.93Z"/>
        <g>
          <path class="cls-3" d="m11.91,20.52c3.64,1.19,5.89,4.68,10.19,3.85,1.28-.25,2.37-.82,3.28-1.59l-5.1-7.8V.75h-10.05v14.22l-3.32,5.08c1.69-.16,3.39-.06,5,.46Z"/>
          <path class="cls-1" d="m28.82,28.05l-3.45-5.28c-.9.77-1.99,1.35-3.28,1.59-4.3.83-6.55-2.66-10.19-3.85-1.61-.53-3.31-.63-5-.46l-5.23,8c-2.17,3.32-.39,6.03,3.94,6.03h19.26c4.34,0,6.11-2.71,3.94-6.03Z"/>
        </g>
        <line class="cls-4" x1="14.85" y1="5.8" x2="20.19" y2="5.8"/>
        <line class="cls-4" x1="14.85" y1="9.04" x2="20.19" y2="9.04"/>
        <path class="cls-2" d="m10.22,14.97l-3.32,5.08c1.69-.16,3.39-.06,5,.46,3.64,1.19,5.89,4.68,10.19,3.85,1.28-.25,2.37-.82,3.28-1.59l-5.1-7.8"/>
      </g>
    </g>
  </g>
</svg>