<?xml version="1.0" encoding="UTF-8"?>
<svg id="Layer_2" data-name="Layer 2" xmlns="http://www.w3.org/2000/svg" viewBox="0 0 56.61 61.22">
  <defs>
    <style>
      .cls-1 {
        fill: #cee0f5;
      }

      .cls-1, .cls-2, .cls-3 {
        stroke: #232323;
        stroke-linecap: round;
        stroke-linejoin: round;
        stroke-width: 1.5px;
      }

      .cls-2 {
        fill: none;
      }

      .cls-3 {
        fill: #5173b8;
      }
    </style>
  </defs>
  <g id="Layer_1-2" data-name="Layer 1">
    <g>
      <circle class="cls-3" cx="28.31" cy="30.61" r="5.01"/>
      <line class="cls-2" x1="28.31" y1="25.6" x2="28.31" y2="10.81"/>
      <line class="cls-2" x1="28.31" y1="50.15" x2="28.31" y2="35.62"/>
      <g>
        <line class="cls-2" x1="5.44" y1="36.87" x2="5.44" y2="23.93"/>
        <path class="cls-1" d="m5.76,22.91c2.76,0,5.01-2.24,5.01-5.01s-2.24-5.01-5.01-5.01S.75,15.14.75,17.91s2.24,5.01,5.01,5.01Z"/>
        <path class="cls-1" d="m5.76,38.08c-2.76,0-5.01,2.24-5.01,5.01s2.24,5.01,5.01,5.01,5.01-2.24,5.01-5.01-2.24-5.01-5.01-5.01Z"/>
        <line class="cls-2" x1="34.36" y1="8.27" x2="46.05" y2="14.74"/>
        <line class="cls-2" x1="10.98" y1="14.95" x2="22.88" y2="8.48"/>
        <line class="cls-2" x1="23.3" y1="52.95" x2="10.77" y2="46.06"/>
        <line class="cls-2" x1="45.84" y1="45.85" x2="33.94" y2="53.16"/>
        <line class="cls-2" x1="50.65" y1="23.93" x2="50.65" y2="36.66"/>
        <path class="cls-1" d="m28.64.75c2.76,0,5.01,2.24,5.01,5.01s-2.24,5.01-5.01,5.01-5.01-2.24-5.01-5.01S25.87.75,28.64.75Z"/>
        <path class="cls-1" d="m28.64,50.46c2.76,0,5.01,2.24,5.01,5.01s-2.24,5.01-5.01,5.01-5.01-2.24-5.01-5.01,2.24-5.01,5.01-5.01Z"/>
        <path class="cls-1" d="m50.86,12.9c2.76,0,5.01,2.24,5.01,5.01s-2.24,5.01-5.01,5.01-5.01-2.24-5.01-5.01,2.24-5.01,5.01-5.01Z"/>
        <path class="cls-1" d="m50.86,38.08c2.76,0,5.01,2.24,5.01,5.01s-2.24,5.01-5.01,5.01-5.01-2.24-5.01-5.01,2.24-5.01,5.01-5.01Z"/>
      </g>
      <line class="cls-2" x1="11.61" y1="21.22" x2="23.09" y2="27.69"/>
      <line class="cls-2" x1="33.73" y1="33.12" x2="45.22" y2="40.84"/>
      <line class="cls-2" x1="11.4" y1="40.63" x2="23.09" y2="33.53"/>
      <line class="cls-2" x1="33.53" y1="27.69" x2="45.43" y2="19.96"/>
    </g>
  </g>
</svg>