<?xml version="1.0" encoding="UTF-8"?>
<svg id="Layer_2" data-name="Layer 2" xmlns="http://www.w3.org/2000/svg" viewBox="0 0 61.79 61.79">
  <defs>
    <style>
      .cls-1 {
        fill: #fff;
      }

      .cls-1, .cls-2 {
        stroke: #232323;
        stroke-linecap: round;
        stroke-linejoin: round;
        stroke-width: 1.5px;
      }

      .cls-3 {
        fill: #4b7ae4;
      }

      .cls-4 {
        fill: #232323;
      }

      .cls-2 {
        fill: none;
      }
    </style>
  </defs>
  <g id="_타이틀" data-name="타이틀">
    <g>
      <g>
        <path class="cls-3" d="m42.24,42.78l-13.45,13.45c-6.41,6.41-16.81,6.41-23.23,0h0c-6.41-6.41-6.41-16.81,0-23.23l13.72-13.72,22.95,23.5Z"/>
        <line class="cls-2" x1="19.97" y1="19.97" x2="41.83" y2="41.83"/>
      </g>
      <g>
        <path class="cls-2" d="m28.79,56.23c-6.41,6.41-16.81,6.41-23.23,0h0c-6.41-6.41-6.41-16.81,0-23.23L33.01,5.56c6.41-6.41,16.81-6.41,23.23,0h0c6.41,6.41,6.41,16.81,0,23.23l-27.45,27.45Z"/>
        <line class="cls-1" x1="19.97" y1="19.97" x2="41.83" y2="41.83"/>
      </g>
      <g>
        <path class="cls-1" d="m19.28,19.29l13.72-13.72c6.41-6.41,16.81-6.41,23.23,0h0c6.41,6.41,6.41,16.81,0,23.23l-14,14"/>
        <line class="cls-1" x1="19.97" y1="19.97" x2="41.83" y2="41.83"/>
      </g>
      <path class="cls-4" d="m15.25,54.1c2.59.91,5.14.49,7.4-1.05,3.01-2.05,5.34-5.06,7.69-7.8.52-.61-.36-1.5-.88-.88-2.2,2.57-4.39,5.4-7.15,7.4-2.07,1.5-4.28,1.99-6.72,1.13-.76-.27-1.09.94-.33,1.21h0Z"/>
    </g>
  </g>
</svg>